<mxfile host="app.diagrams.net" modified="2021-06-30T02:51:34.282Z" agent="5.0 (Windows NT 10.0; Win64; x64) AppleWebKit/537.36 (KHTML, like Gecko) Chrome/91.0.4472.114 Safari/537.36" etag="F-RxMbA7RYo4LoKQLl7m" version="14.8.2" type="github" pages="2">
  <diagram id="HRr8o9RtcrnC450Olbuu" name="Page-1">
    <mxGraphModel dx="1117" dy="683" grid="1" gridSize="10" guides="1" tooltips="1" connect="1" arrows="1" fold="1" page="1" pageScale="1" pageWidth="827" pageHeight="1169" math="0" shadow="0">
      <root>
        <mxCell id="0" />
        <mxCell id="1" parent="0" />
        <mxCell id="GgPFlZiJIGsBt4uD8MgS-12" value="Văn Phòng" style="rounded=0;whiteSpace=wrap;html=1;" vertex="1" parent="1">
          <mxGeometry x="360" y="230" width="120" height="60" as="geometry" />
        </mxCell>
        <mxCell id="GgPFlZiJIGsBt4uD8MgS-56" style="edgeStyle=none;rounded=0;orthogonalLoop=1;jettySize=auto;html=1;exitX=1;exitY=0;exitDx=0;exitDy=0;entryX=0;entryY=1;entryDx=0;entryDy=0;" edge="1" parent="1" source="GgPFlZiJIGsBt4uD8MgS-13" target="GgPFlZiJIGsBt4uD8MgS-26">
          <mxGeometry relative="1" as="geometry" />
        </mxCell>
        <mxCell id="GgPFlZiJIGsBt4uD8MgS-59" style="edgeStyle=orthogonalEdgeStyle;rounded=0;orthogonalLoop=1;jettySize=auto;html=1;exitX=0.5;exitY=1;exitDx=0;exitDy=0;entryX=0.25;entryY=0;entryDx=0;entryDy=0;" edge="1" parent="1" source="GgPFlZiJIGsBt4uD8MgS-13" target="GgPFlZiJIGsBt4uD8MgS-12">
          <mxGeometry relative="1" as="geometry" />
        </mxCell>
        <mxCell id="GgPFlZiJIGsBt4uD8MgS-13" value="Nhân Viên" style="rounded=0;whiteSpace=wrap;html=1;" vertex="1" parent="1">
          <mxGeometry x="80" y="130" width="120" height="60" as="geometry" />
        </mxCell>
        <mxCell id="GgPFlZiJIGsBt4uD8MgS-53" style="edgeStyle=none;rounded=0;orthogonalLoop=1;jettySize=auto;html=1;exitX=0;exitY=0;exitDx=0;exitDy=0;" edge="1" parent="1" source="GgPFlZiJIGsBt4uD8MgS-15" target="GgPFlZiJIGsBt4uD8MgS-27">
          <mxGeometry relative="1" as="geometry" />
        </mxCell>
        <mxCell id="GgPFlZiJIGsBt4uD8MgS-60" style="edgeStyle=orthogonalEdgeStyle;rounded=0;orthogonalLoop=1;jettySize=auto;html=1;exitX=0.5;exitY=1;exitDx=0;exitDy=0;entryX=0.833;entryY=0;entryDx=0;entryDy=0;entryPerimeter=0;" edge="1" parent="1" source="GgPFlZiJIGsBt4uD8MgS-15" target="GgPFlZiJIGsBt4uD8MgS-12">
          <mxGeometry relative="1" as="geometry" />
        </mxCell>
        <mxCell id="GgPFlZiJIGsBt4uD8MgS-15" value="Trưởng Phòng" style="rounded=0;whiteSpace=wrap;html=1;" vertex="1" parent="1">
          <mxGeometry x="610" y="120" width="120" height="60" as="geometry" />
        </mxCell>
        <mxCell id="GgPFlZiJIGsBt4uD8MgS-16" value="Thân Nhân" style="rounded=0;whiteSpace=wrap;html=1;" vertex="1" parent="1">
          <mxGeometry x="354" width="120" height="60" as="geometry" />
        </mxCell>
        <mxCell id="GgPFlZiJIGsBt4uD8MgS-62" style="edgeStyle=orthogonalEdgeStyle;rounded=0;orthogonalLoop=1;jettySize=auto;html=1;exitX=0.5;exitY=0;exitDx=0;exitDy=0;entryX=0.5;entryY=1;entryDx=0;entryDy=0;" edge="1" parent="1" source="GgPFlZiJIGsBt4uD8MgS-17" target="GgPFlZiJIGsBt4uD8MgS-12">
          <mxGeometry relative="1" as="geometry" />
        </mxCell>
        <mxCell id="GgPFlZiJIGsBt4uD8MgS-17" value="Sản Phẩm" style="rounded=0;whiteSpace=wrap;html=1;" vertex="1" parent="1">
          <mxGeometry x="390" y="380" width="120" height="60" as="geometry" />
        </mxCell>
        <mxCell id="GgPFlZiJIGsBt4uD8MgS-64" style="edgeStyle=orthogonalEdgeStyle;rounded=0;orthogonalLoop=1;jettySize=auto;html=1;exitX=1;exitY=0.5;exitDx=0;exitDy=0;entryX=0;entryY=0.75;entryDx=0;entryDy=0;" edge="1" parent="1" source="GgPFlZiJIGsBt4uD8MgS-18" target="GgPFlZiJIGsBt4uD8MgS-17">
          <mxGeometry relative="1" as="geometry" />
        </mxCell>
        <mxCell id="GgPFlZiJIGsBt4uD8MgS-18" value="Chủ sở hữu" style="rounded=0;whiteSpace=wrap;html=1;" vertex="1" parent="1">
          <mxGeometry x="60" y="400" width="120" height="60" as="geometry" />
        </mxCell>
        <mxCell id="GgPFlZiJIGsBt4uD8MgS-19" value="Mã Phòng" style="ellipse;whiteSpace=wrap;html=1;" vertex="1" parent="1">
          <mxGeometry x="550" y="300" width="80" height="50" as="geometry" />
        </mxCell>
        <mxCell id="GgPFlZiJIGsBt4uD8MgS-20" value="Địa điểm" style="ellipse;whiteSpace=wrap;html=1;" vertex="1" parent="1">
          <mxGeometry x="240" y="310" width="80" height="50" as="geometry" />
        </mxCell>
        <mxCell id="GgPFlZiJIGsBt4uD8MgS-23" value="Mã Nhân Viên" style="ellipse;whiteSpace=wrap;html=1;" vertex="1" parent="1">
          <mxGeometry x="450" y="100" width="80" height="50" as="geometry" />
        </mxCell>
        <mxCell id="GgPFlZiJIGsBt4uD8MgS-24" value="Tên Nhân Viên" style="ellipse;whiteSpace=wrap;html=1;" vertex="1" parent="1">
          <mxGeometry x="320" y="100" width="80" height="50" as="geometry" />
        </mxCell>
        <mxCell id="GgPFlZiJIGsBt4uD8MgS-55" style="edgeStyle=none;rounded=0;orthogonalLoop=1;jettySize=auto;html=1;exitX=1;exitY=0;exitDx=0;exitDy=0;" edge="1" parent="1" source="GgPFlZiJIGsBt4uD8MgS-26">
          <mxGeometry relative="1" as="geometry">
            <mxPoint x="350" y="50" as="targetPoint" />
          </mxGeometry>
        </mxCell>
        <mxCell id="GgPFlZiJIGsBt4uD8MgS-26" value="Quan hệ" style="rhombus;whiteSpace=wrap;html=1;" vertex="1" parent="1">
          <mxGeometry x="225" y="60" width="70" height="70" as="geometry" />
        </mxCell>
        <mxCell id="GgPFlZiJIGsBt4uD8MgS-54" style="edgeStyle=none;rounded=0;orthogonalLoop=1;jettySize=auto;html=1;exitX=0;exitY=0;exitDx=0;exitDy=0;entryX=1;entryY=0.75;entryDx=0;entryDy=0;" edge="1" parent="1" source="GgPFlZiJIGsBt4uD8MgS-27" target="GgPFlZiJIGsBt4uD8MgS-16">
          <mxGeometry relative="1" as="geometry" />
        </mxCell>
        <mxCell id="GgPFlZiJIGsBt4uD8MgS-27" value="Quan hệ" style="rhombus;whiteSpace=wrap;html=1;" vertex="1" parent="1">
          <mxGeometry x="530" y="50" width="70" height="70" as="geometry" />
        </mxCell>
        <mxCell id="GgPFlZiJIGsBt4uD8MgS-29" value="Tên&amp;nbsp;" style="ellipse;whiteSpace=wrap;html=1;" vertex="1" parent="1">
          <mxGeometry x="240" width="80" height="50" as="geometry" />
        </mxCell>
        <mxCell id="GgPFlZiJIGsBt4uD8MgS-30" value="Ngày Sinh" style="ellipse;whiteSpace=wrap;html=1;" vertex="1" parent="1">
          <mxGeometry x="520" width="80" height="50" as="geometry" />
        </mxCell>
        <mxCell id="GgPFlZiJIGsBt4uD8MgS-45" style="edgeStyle=none;rounded=0;orthogonalLoop=1;jettySize=auto;html=1;exitX=1;exitY=0;exitDx=0;exitDy=0;entryX=0.167;entryY=1;entryDx=0;entryDy=0;entryPerimeter=0;strokeColor=none;" edge="1" parent="1" source="GgPFlZiJIGsBt4uD8MgS-31" target="GgPFlZiJIGsBt4uD8MgS-17">
          <mxGeometry relative="1" as="geometry" />
        </mxCell>
        <mxCell id="GgPFlZiJIGsBt4uD8MgS-31" value="Đia điểm" style="ellipse;whiteSpace=wrap;html=1;" vertex="1" parent="1">
          <mxGeometry x="320" y="480" width="80" height="50" as="geometry" />
        </mxCell>
        <mxCell id="GgPFlZiJIGsBt4uD8MgS-32" value="MaBDS" style="ellipse;whiteSpace=wrap;html=1;" vertex="1" parent="1">
          <mxGeometry x="540" y="470" width="80" height="50" as="geometry" />
        </mxCell>
        <mxCell id="GgPFlZiJIGsBt4uD8MgS-34" value="Mã chủ sở hữu" style="ellipse;whiteSpace=wrap;html=1;" vertex="1" parent="1">
          <mxGeometry x="120" y="340" width="80" height="50" as="geometry" />
        </mxCell>
        <mxCell id="GgPFlZiJIGsBt4uD8MgS-35" value="Địa chỉ" style="ellipse;whiteSpace=wrap;html=1;" vertex="1" parent="1">
          <mxGeometry x="160" y="480" width="80" height="50" as="geometry" />
        </mxCell>
        <mxCell id="GgPFlZiJIGsBt4uD8MgS-36" value="Tên" style="ellipse;whiteSpace=wrap;html=1;" vertex="1" parent="1">
          <mxGeometry x="20" y="480" width="80" height="50" as="geometry" />
        </mxCell>
        <mxCell id="GgPFlZiJIGsBt4uD8MgS-37" value="SĐT" style="ellipse;whiteSpace=wrap;html=1;" vertex="1" parent="1">
          <mxGeometry y="340" width="80" height="50" as="geometry" />
        </mxCell>
        <mxCell id="GgPFlZiJIGsBt4uD8MgS-66" value="1" style="text;html=1;strokeColor=none;fillColor=none;align=center;verticalAlign=middle;whiteSpace=wrap;rounded=0;" vertex="1" parent="1">
          <mxGeometry x="185" y="410" width="40" height="20" as="geometry" />
        </mxCell>
        <mxCell id="GgPFlZiJIGsBt4uD8MgS-67" value="n" style="text;html=1;strokeColor=none;fillColor=none;align=center;verticalAlign=middle;whiteSpace=wrap;rounded=0;" vertex="1" parent="1">
          <mxGeometry x="340" y="400" width="40" height="20" as="geometry" />
        </mxCell>
        <mxCell id="GgPFlZiJIGsBt4uD8MgS-68" value="1" style="text;html=1;strokeColor=none;fillColor=none;align=center;verticalAlign=middle;whiteSpace=wrap;rounded=0;" vertex="1" parent="1">
          <mxGeometry x="420" y="300" width="40" height="20" as="geometry" />
        </mxCell>
        <mxCell id="GgPFlZiJIGsBt4uD8MgS-69" value="1" style="text;html=1;strokeColor=none;fillColor=none;align=center;verticalAlign=middle;whiteSpace=wrap;rounded=0;" vertex="1" parent="1">
          <mxGeometry x="450" y="360" width="40" height="20" as="geometry" />
        </mxCell>
        <mxCell id="GgPFlZiJIGsBt4uD8MgS-70" value="n" style="text;html=1;strokeColor=none;fillColor=none;align=center;verticalAlign=middle;whiteSpace=wrap;rounded=0;" vertex="1" parent="1">
          <mxGeometry x="100" y="190" width="40" height="20" as="geometry" />
        </mxCell>
        <mxCell id="GgPFlZiJIGsBt4uD8MgS-71" value="1" style="text;html=1;strokeColor=none;fillColor=none;align=center;verticalAlign=middle;whiteSpace=wrap;rounded=0;" vertex="1" parent="1">
          <mxGeometry x="360" y="190" width="40" height="20" as="geometry" />
        </mxCell>
        <mxCell id="GgPFlZiJIGsBt4uD8MgS-72" value="1" style="text;html=1;strokeColor=none;fillColor=none;align=center;verticalAlign=middle;whiteSpace=wrap;rounded=0;" vertex="1" parent="1">
          <mxGeometry x="460" y="180" width="40" height="20" as="geometry" />
        </mxCell>
        <mxCell id="GgPFlZiJIGsBt4uD8MgS-73" value="1" style="text;html=1;strokeColor=none;fillColor=none;align=center;verticalAlign=middle;whiteSpace=wrap;rounded=0;" vertex="1" parent="1">
          <mxGeometry x="630" y="180" width="40" height="20" as="geometry" />
        </mxCell>
        <mxCell id="GgPFlZiJIGsBt4uD8MgS-74" value="1" style="text;html=1;strokeColor=none;fillColor=none;align=center;verticalAlign=middle;whiteSpace=wrap;rounded=0;" vertex="1" parent="1">
          <mxGeometry x="170" y="110" width="40" height="20" as="geometry" />
        </mxCell>
        <mxCell id="GgPFlZiJIGsBt4uD8MgS-75" value="n" style="text;html=1;strokeColor=none;fillColor=none;align=center;verticalAlign=middle;whiteSpace=wrap;rounded=0;" vertex="1" parent="1">
          <mxGeometry x="310" y="40" width="40" height="20" as="geometry" />
        </mxCell>
        <mxCell id="GgPFlZiJIGsBt4uD8MgS-76" value="1" style="text;html=1;strokeColor=none;fillColor=none;align=center;verticalAlign=middle;whiteSpace=wrap;rounded=0;" vertex="1" parent="1">
          <mxGeometry x="590" y="100" width="40" height="20" as="geometry" />
        </mxCell>
        <mxCell id="GgPFlZiJIGsBt4uD8MgS-77" value="n" style="text;html=1;strokeColor=none;fillColor=none;align=center;verticalAlign=middle;whiteSpace=wrap;rounded=0;" vertex="1" parent="1">
          <mxGeometry x="490" y="40" width="40" height="20" as="geometry" />
        </mxCell>
        <mxCell id="GgPFlZiJIGsBt4uD8MgS-79" style="edgeStyle=orthogonalEdgeStyle;rounded=0;orthogonalLoop=1;jettySize=auto;html=1;exitX=1;exitY=0.5;exitDx=0;exitDy=0;entryX=0;entryY=0.5;entryDx=0;entryDy=0;" edge="1" parent="1" source="GgPFlZiJIGsBt4uD8MgS-78" target="GgPFlZiJIGsBt4uD8MgS-12">
          <mxGeometry relative="1" as="geometry" />
        </mxCell>
        <mxCell id="GgPFlZiJIGsBt4uD8MgS-78" value="Công TY BĐS" style="rounded=0;whiteSpace=wrap;html=1;" vertex="1" parent="1">
          <mxGeometry x="40" y="235" width="120" height="60" as="geometry" />
        </mxCell>
        <mxCell id="GgPFlZiJIGsBt4uD8MgS-80" value="1" style="text;html=1;strokeColor=none;fillColor=none;align=center;verticalAlign=middle;whiteSpace=wrap;rounded=0;" vertex="1" parent="1">
          <mxGeometry x="170" y="240" width="40" height="20" as="geometry" />
        </mxCell>
        <mxCell id="GgPFlZiJIGsBt4uD8MgS-81" value="n" style="text;html=1;strokeColor=none;fillColor=none;align=center;verticalAlign=middle;whiteSpace=wrap;rounded=0;" vertex="1" parent="1">
          <mxGeometry x="320" y="240" width="40" height="20" as="geometry" />
        </mxCell>
        <mxCell id="GgPFlZiJIGsBt4uD8MgS-83" value="" style="endArrow=none;html=1;strokeColor=#000000;exitX=1;exitY=0;exitDx=0;exitDy=0;" edge="1" parent="1" source="GgPFlZiJIGsBt4uD8MgS-31">
          <mxGeometry width="50" height="50" relative="1" as="geometry">
            <mxPoint x="380" y="490" as="sourcePoint" />
            <mxPoint x="430" y="440" as="targetPoint" />
          </mxGeometry>
        </mxCell>
        <mxCell id="GgPFlZiJIGsBt4uD8MgS-84" value="" style="endArrow=none;html=1;strokeColor=#000000;entryX=1;entryY=0.75;entryDx=0;entryDy=0;" edge="1" parent="1" target="GgPFlZiJIGsBt4uD8MgS-17">
          <mxGeometry width="50" height="50" relative="1" as="geometry">
            <mxPoint x="550" y="480" as="sourcePoint" />
            <mxPoint x="600" y="430" as="targetPoint" />
          </mxGeometry>
        </mxCell>
        <mxCell id="GgPFlZiJIGsBt4uD8MgS-85" value="" style="endArrow=none;html=1;strokeColor=#000000;exitX=1;exitY=0;exitDx=0;exitDy=0;" edge="1" parent="1" source="GgPFlZiJIGsBt4uD8MgS-36">
          <mxGeometry width="50" height="50" relative="1" as="geometry">
            <mxPoint x="60" y="510" as="sourcePoint" />
            <mxPoint x="110" y="460" as="targetPoint" />
          </mxGeometry>
        </mxCell>
        <mxCell id="GgPFlZiJIGsBt4uD8MgS-86" value="" style="endArrow=none;html=1;strokeColor=#000000;" edge="1" parent="1" target="GgPFlZiJIGsBt4uD8MgS-18">
          <mxGeometry width="50" height="50" relative="1" as="geometry">
            <mxPoint x="160" y="500" as="sourcePoint" />
            <mxPoint x="210" y="450" as="targetPoint" />
          </mxGeometry>
        </mxCell>
        <mxCell id="GgPFlZiJIGsBt4uD8MgS-88" value="" style="endArrow=none;html=1;strokeColor=#000000;entryX=1;entryY=1;entryDx=0;entryDy=0;exitX=0.25;exitY=0;exitDx=0;exitDy=0;" edge="1" parent="1" source="GgPFlZiJIGsBt4uD8MgS-18" target="GgPFlZiJIGsBt4uD8MgS-37">
          <mxGeometry width="50" height="50" relative="1" as="geometry">
            <mxPoint x="50" y="420" as="sourcePoint" />
            <mxPoint x="100" y="370" as="targetPoint" />
          </mxGeometry>
        </mxCell>
        <mxCell id="GgPFlZiJIGsBt4uD8MgS-89" value="" style="endArrow=none;html=1;strokeColor=#000000;entryX=0.5;entryY=1;entryDx=0;entryDy=0;exitX=0.567;exitY=-0.011;exitDx=0;exitDy=0;exitPerimeter=0;" edge="1" parent="1" source="GgPFlZiJIGsBt4uD8MgS-18" target="GgPFlZiJIGsBt4uD8MgS-34">
          <mxGeometry width="50" height="50" relative="1" as="geometry">
            <mxPoint x="120" y="420" as="sourcePoint" />
            <mxPoint x="170" y="370" as="targetPoint" />
          </mxGeometry>
        </mxCell>
        <mxCell id="GgPFlZiJIGsBt4uD8MgS-90" value="" style="endArrow=none;html=1;strokeColor=#000000;exitX=0.942;exitY=0.253;exitDx=0;exitDy=0;exitPerimeter=0;" edge="1" parent="1" source="GgPFlZiJIGsBt4uD8MgS-20">
          <mxGeometry width="50" height="50" relative="1" as="geometry">
            <mxPoint x="310" y="335" as="sourcePoint" />
            <mxPoint x="360" y="285" as="targetPoint" />
          </mxGeometry>
        </mxCell>
        <mxCell id="GgPFlZiJIGsBt4uD8MgS-91" value="" style="endArrow=none;html=1;strokeColor=#000000;entryX=0;entryY=0.5;entryDx=0;entryDy=0;" edge="1" parent="1" target="GgPFlZiJIGsBt4uD8MgS-19">
          <mxGeometry width="50" height="50" relative="1" as="geometry">
            <mxPoint x="480" y="285" as="sourcePoint" />
            <mxPoint x="530" y="235" as="targetPoint" />
          </mxGeometry>
        </mxCell>
        <mxCell id="GgPFlZiJIGsBt4uD8MgS-92" value="" style="endArrow=none;html=1;strokeColor=#000000;entryX=0;entryY=0.5;entryDx=0;entryDy=0;" edge="1" parent="1" target="GgPFlZiJIGsBt4uD8MgS-24">
          <mxGeometry width="50" height="50" relative="1" as="geometry">
            <mxPoint x="200" y="175" as="sourcePoint" />
            <mxPoint x="250" y="125" as="targetPoint" />
          </mxGeometry>
        </mxCell>
        <mxCell id="GgPFlZiJIGsBt4uD8MgS-93" value="" style="endArrow=none;html=1;strokeColor=#000000;entryX=0;entryY=0.5;entryDx=0;entryDy=0;" edge="1" parent="1" target="GgPFlZiJIGsBt4uD8MgS-23">
          <mxGeometry width="50" height="50" relative="1" as="geometry">
            <mxPoint x="200" y="190" as="sourcePoint" />
            <mxPoint x="250" y="140" as="targetPoint" />
          </mxGeometry>
        </mxCell>
        <mxCell id="GgPFlZiJIGsBt4uD8MgS-94" value="" style="endArrow=none;html=1;strokeColor=#000000;entryX=0;entryY=1;entryDx=0;entryDy=0;" edge="1" parent="1" target="GgPFlZiJIGsBt4uD8MgS-15">
          <mxGeometry width="50" height="50" relative="1" as="geometry">
            <mxPoint x="390" y="140" as="sourcePoint" />
            <mxPoint x="600" y="40" as="targetPoint" />
          </mxGeometry>
        </mxCell>
        <mxCell id="GgPFlZiJIGsBt4uD8MgS-95" value="" style="endArrow=none;html=1;strokeColor=#000000;entryX=0;entryY=0.5;entryDx=0;entryDy=0;" edge="1" parent="1" target="GgPFlZiJIGsBt4uD8MgS-15">
          <mxGeometry width="50" height="50" relative="1" as="geometry">
            <mxPoint x="530" y="130" as="sourcePoint" />
            <mxPoint x="580" y="80" as="targetPoint" />
          </mxGeometry>
        </mxCell>
        <mxCell id="GgPFlZiJIGsBt4uD8MgS-96" value="" style="endArrow=none;html=1;strokeColor=#000000;entryX=0;entryY=0.5;entryDx=0;entryDy=0;" edge="1" parent="1" target="GgPFlZiJIGsBt4uD8MgS-30">
          <mxGeometry width="50" height="50" relative="1" as="geometry">
            <mxPoint x="474" y="30" as="sourcePoint" />
            <mxPoint x="524" y="-20" as="targetPoint" />
          </mxGeometry>
        </mxCell>
        <mxCell id="GgPFlZiJIGsBt4uD8MgS-97" value="" style="endArrow=none;html=1;strokeColor=#000000;entryX=0;entryY=0.5;entryDx=0;entryDy=0;" edge="1" parent="1" target="GgPFlZiJIGsBt4uD8MgS-16">
          <mxGeometry width="50" height="50" relative="1" as="geometry">
            <mxPoint x="320" y="30" as="sourcePoint" />
            <mxPoint x="370" y="-20" as="targetPoint" />
          </mxGeometry>
        </mxCell>
      </root>
    </mxGraphModel>
  </diagram>
  <diagram id="DWU7bmGt4CnxW_HAHhNU" name="Page-2">
    <mxGraphModel dx="782" dy="478" grid="1" gridSize="10" guides="1" tooltips="1" connect="1" arrows="1" fold="1" page="1" pageScale="1" pageWidth="827" pageHeight="1169" math="0" shadow="0">
      <root>
        <mxCell id="pqbNp-aNuuWbY88XRqfA-0" />
        <mxCell id="pqbNp-aNuuWbY88XRqfA-1" parent="pqbNp-aNuuWbY88XRqfA-0" />
      </root>
    </mxGraphModel>
  </diagram>
</mxfile>
